<?xml version="1.0" standalone="no"?>
<!DOCTYPE svg PUBLIC "-//W3C//DTD SVG 20010904//EN"
 "http://www.w3.org/TR/2001/REC-SVG-20010904/DTD/svg10.dtd">
<svg version="1.0" xmlns="http://www.w3.org/2000/svg"
 width="500.000000pt" height="500.000000pt" viewBox="0 0 500.000000 500.000000"
 preserveAspectRatio="xMidYMid meet">
<metadata>
Created by potrace 1.14, written by Peter Selinger 2001-2017
</metadata>
<g transform="translate(0.000000,500.000000) scale(0.100000,-0.100000)"
fill="#000000" stroke="none">
<path d="M2270 4994 c-14 -2 -77 -11 -140 -20 -499 -69 -1002 -317 -1364 -672
-506 -497 -766 -1109 -766 -1802 0 -846 413 -1615 1120 -2086 295 -197 624
-326 984 -386 111 -19 171 -22 396 -22 228 0 284 3 396 22 656 110 1231 462
1621 992 319 433 483 936 483 1480 0 693 -260 1305 -766 1802 -297 291 -697
515 -1113 624 -190 49 -329 66 -586 69 -132 2 -251 2 -265 -1z m595 -63 c255
-38 481 -109 720 -226 545 -266 976 -732 1199 -1295 393 -994 108 -2114 -714
-2802 -343 -287 -770 -476 -1235 -545 -178 -26 -512 -24 -702 5 -777 120
-1451 601 -1812 1294 -291 558 -358 1211 -186 1809 123 427 338 785 656 1094
261 253 559 438 894 555 201 70 336 98 635 134 83 10 421 -4 545 -23z"/>
<path d="M1686 3420 c-281 -51 -506 -246 -603 -525 -27 -79 -28 -83 -31 -372
l-4 -293 86 0 86 0 0 258 c0 289 6 328 66 448 46 93 108 162 200 223 107 72
190 96 329 96 137 0 220 -24 326 -93 92 -60 159 -135 206 -230 l37 -73 16 53
c9 29 28 76 42 105 l27 52 -50 66 c-91 120 -256 230 -404 270 -71 19 -260 28
-329 15z"/>
<path d="M3075 3424 c-199 -29 -394 -147 -510 -309 -97 -136 -138 -256 -150
-439 -11 -167 -37 -252 -114 -365 -49 -72 -131 -141 -224 -188 -118 -59 -155
-63 -614 -63 l-413 0 0 -85 0 -85 413 0 c237 0 439 5 476 11 283 46 519 249
607 524 17 55 29 126 39 231 10 115 19 165 38 213 40 98 87 169 156 232 294
271 765 182 940 -178 52 -106 61 -168 61 -445 l0 -248 86 0 86 0 -5 288 c-5
318 -7 336 -75 476 -94 195 -262 338 -477 406 -69 21 -247 35 -320 24z"/>
<path d="M2596 2403 c-10 -32 -29 -79 -42 -105 l-24 -47 48 -63 c66 -86 167
-169 265 -217 153 -75 149 -74 655 -78 l452 -4 0 85 0 86 -407 0 c-450 0 -493
5 -612 60 -128 60 -230 162 -288 288 -14 28 -26 52 -27 52 -1 0 -10 -26 -20
-57z"/>
<path d="M1117 1833 c-4 -3 -7 -28 -7 -54 0 -57 4 -59 109 -59 86 0 101 8 101
56 0 62 -3 64 -104 64 -51 0 -96 -3 -99 -7z"/>
<path d="M3686 1825 c-10 -27 -7 -80 6 -93 14 -14 165 -17 186 -3 9 5 12 25
10 57 l-3 49 -96 3 c-81 2 -98 0 -103 -13z"/>
<path d="M775 1773 c-133 -16 -268 -49 -259 -64 8 -14 181 -49 271 -55 104 -8
207 7 267 38 l41 21 -51 23 c-71 33 -181 48 -269 37z"/>
<path d="M1487 1770 c-62 -10 -147 -43 -147 -58 0 -24 145 -62 238 -62 82 0
189 16 277 42 82 24 78 27 -65 58 -108 23 -228 31 -303 20z"/>
<path d="M3345 1774 c-69 -10 -154 -26 -208 -41 -70 -19 -64 -25 57 -56 150
-38 384 -26 456 23 13 9 12 12 -4 25 -43 33 -215 61 -301 49z"/>
<path d="M4085 1774 c-51 -8 -138 -35 -158 -49 -18 -13 -17 -15 20 -34 60 -30
163 -45 266 -37 90 6 263 41 271 55 17 27 -303 79 -399 65z"/>
<path d="M1131 1671 c22 -64 92 -79 140 -32 51 51 41 61 -60 61 l-90 0 10 -29z"/>
<path d="M3700 1684 c0 -25 56 -74 85 -74 36 0 72 26 84 61 l10 29 -90 0 c-74
0 -89 -3 -89 -16z"/>
</g>
</svg>
